<svg version="1.1" viewBox="0.0 0.0 960.0 540.0" fill="none" stroke="none" stroke-linecap="square" stroke-miterlimit="10" xmlns:xlink="http://www.w3.org/1999/xlink" xmlns="http://www.w3.org/2000/svg"><clipPath id="g73c15061b7_0_2.0"><path d="m0 0l960.0 0l0 540.0l-960.0 0l0 -540.0z" clip-rule="nonzero"/></clipPath><g clip-path="url(#g73c15061b7_0_2.0)"><path fill="#ffffff" d="m0 0l960.0 0l0 540.0l-960.0 0z" fill-rule="evenodd"/><path fill="#eeeeee" d="m83.379265 89.63153l0 0c0 -34.44741 29.316536 -62.37256 65.48031 -62.37256l0 0c17.36647 0 34.021637 6.571377 46.301575 18.268501c12.279953 11.6971245 19.178741 27.561829 19.178741 44.104057l0 0c0 34.44742 -29.316528 62.37256 -65.480316 62.37256l0 0c-36.163773 0 -65.48031 -27.92514 -65.48031 -62.37256z" fill-rule="evenodd"/><path stroke="#595959" stroke-width="1.0" stroke-linejoin="round" stroke-linecap="butt" d="m83.379265 89.63153l0 0c0 -34.44741 29.316536 -62.37256 65.48031 -62.37256l0 0c17.36647 0 34.021637 6.571377 46.301575 18.268501c12.279953 11.6971245 19.178741 27.561829 19.178741 44.104057l0 0c0 34.44742 -29.316528 62.37256 -65.480316 62.37256l0 0c-36.163773 0 -65.48031 -27.92514 -65.48031 -62.37256z" fill-rule="evenodd"/><path fill="#000000" d="m141.09395 101.35153l6.0625 -8.625l-5.609375 -7.96875l3.515625 0l2.546875 3.890625q0.71875 1.109375 1.15625 1.859375q0.6875 -1.03125 1.265625 -1.828125l2.796875 -3.921875l3.359375 0l-5.734375 7.8125l6.171875 8.78125l-3.453125 0l-3.40625 -5.15625l-0.90625 -1.390625l-4.359375 6.546875l-3.40625 0z" fill-rule="nonzero"/><path fill="#eeeeee" d="m83.379265 274.8374l0 0c0 -34.447403 29.316536 -62.372543 65.48031 -62.372543l0 0c17.36647 0 34.021637 6.5713654 46.301575 18.268494c12.279953 11.697128 19.178741 27.561813 19.178741 44.10405l0 0c0 34.44742 -29.316528 62.37256 -65.480316 62.37256l0 0c-36.163773 0 -65.48031 -27.92514 -65.48031 -62.37256z" fill-rule="evenodd"/><path stroke="#595959" stroke-width="1.0" stroke-linejoin="round" stroke-linecap="butt" d="m83.379265 274.8374l0 0c0 -34.447403 29.316536 -62.372543 65.48031 -62.372543l0 0c17.36647 0 34.021637 6.5713654 46.301575 18.268494c12.279953 11.697128 19.178741 27.561813 19.178741 44.10405l0 0c0 34.44742 -29.316528 62.37256 -65.480316 62.37256l0 0c-36.163773 0 -65.48031 -27.92514 -65.48031 -62.37256z" fill-rule="evenodd"/><path fill="#000000" d="m142.84395 292.94803l-0.3125 -2.640625q0.921875 0.25 1.609375 0.25q0.9375 0 1.5 -0.3125q0.5625 -0.3125 0.921875 -0.875q0.265625 -0.421875 0.859375 -2.09375q0.078125 -0.234375 0.25 -0.6875l-6.296875 -16.625l3.03125 0l3.453125 9.609375q0.671875 1.828125 1.203125 3.84375q0.484375 -1.9375 1.15625 -3.78125l3.546875 -9.671875l2.8125 0l-6.3125 16.875q-1.015625 2.734375 -1.578125 3.765625q-0.75 1.390625 -1.71875 2.03125q-0.96875 0.65625 -2.3125 0.65625q-0.8125 0 -1.8125 -0.34375z" fill-rule="nonzero"/><path fill="#eeeeee" d="m83.379265 460.0433l0 0c0 -34.44742 29.316536 -62.37256 65.48031 -62.37256l0 0c17.36647 0 34.021637 6.57135 46.301575 18.268494c12.279953 11.697113 19.178741 27.561829 19.178741 44.104065l0 0c0 34.447388 -29.316528 62.372528 -65.480316 62.372528l0 0c-36.163773 0 -65.48031 -27.92514 -65.48031 -62.372528z" fill-rule="evenodd"/><path stroke="#595959" stroke-width="1.0" stroke-linejoin="round" stroke-linecap="butt" d="m83.379265 460.0433l0 0c0 -34.44742 29.316536 -62.37256 65.48031 -62.37256l0 0c17.36647 0 34.021637 6.57135 46.301575 18.268494c12.279953 11.697113 19.178741 27.561829 19.178741 44.104065l0 0c0 34.447388 -29.316528 62.372528 -65.480316 62.372528l0 0c-36.163773 0 -65.48031 -27.92514 -65.48031 -62.372528z" fill-rule="evenodd"/><path fill="#000000" d="m151.88301 471.76328l-2.8125 0l0 -17.921875q-1.015625 0.96875 -2.671875 1.9375q-1.640625 0.96875 -2.953125 1.453125l0 -2.71875q2.359375 -1.109375 4.125 -2.6875q1.765625 -1.578125 2.5 -3.0625l1.8125 0l0 23.0z" fill-rule="nonzero"/><path fill="#eeeeee" d="m416.05643 274.8374l0 0c0 -59.39209 50.764557 -107.538895 113.38583 -107.538895l0 0c30.071777 0 58.911926 11.329971 80.1759 31.497421c21.263977 20.16745 33.2099 47.5204 33.2099 76.04147l0 0c0 59.39209 -50.764526 107.53891 -113.3858 107.53891l0 0c-62.621277 0 -113.38583 -48.14682 -113.38583 -107.53891z" fill-rule="evenodd"/><path stroke="#595959" stroke-width="1.0" stroke-linejoin="round" stroke-linecap="butt" d="m416.05643 274.8374l0 0c0 -59.39209 50.764557 -107.538895 113.38583 -107.538895l0 0c30.071777 0 58.911926 11.329971 80.1759 31.497421c21.263977 20.16745 33.2099 47.5204 33.2099 76.04147l0 0c0 59.39209 -50.764526 107.53891 -113.3858 107.53891l0 0c-62.621277 0 -113.38583 -48.14682 -113.38583 -107.53891z" fill-rule="evenodd"/><path fill="#000000" d="m515.5985 256.9643l28.984375 0l0 3.84375l-23.15625 0l14.234375 18.171875l-15.21875 19.265625l24.375 0l0 3.78125l-29.625 0l0 -4.390625l14.53125 -18.46875l-14.125 -18.09375l0 -4.109375z" fill-rule="nonzero"/><path fill="#000000" fill-opacity="0.0" d="m214.33989 89.63153l234.89763 109.15198" fill-rule="evenodd"/><path stroke="#595959" stroke-width="4.0" stroke-linejoin="round" stroke-linecap="butt" d="m214.33989 89.63153l213.1327 99.03827" fill-rule="evenodd"/><path fill="#595959" stroke="#595959" stroke-width="4.0" stroke-linecap="butt" d="m424.6884 194.66144l19.246124 1.6578522l-13.677734 -13.641144z" fill-rule="evenodd"/><path fill="#000000" fill-opacity="0.0" d="m214.33989 274.8374l201.73228 0" fill-rule="evenodd"/><path stroke="#595959" stroke-width="4.0" stroke-linejoin="round" stroke-linecap="butt" d="m214.33989 274.8374l177.73228 0" fill-rule="evenodd"/><path fill="#595959" stroke="#595959" stroke-width="4.0" stroke-linecap="butt" d="m392.07217 281.44434l18.152405 -6.6069336l-18.152405 -6.606903z" fill-rule="evenodd"/><path fill="#000000" fill-opacity="0.0" d="m214.33989 460.0433l234.89763 -109.15201" fill-rule="evenodd"/><path stroke="#595959" stroke-width="4.0" stroke-linejoin="round" stroke-linecap="butt" d="m214.33989 460.0433l213.1327 -99.03827" fill-rule="evenodd"/><path fill="#595959" stroke="#595959" stroke-width="4.0" stroke-linecap="butt" d="m430.25677 366.99667l13.677734 -13.641144l-19.246124 1.6578674z" fill-rule="evenodd"/><path fill="#000000" fill-opacity="0.0" d="m273.67847 66.42105l83.055115 0l0 75.00838l-83.055115 0z" fill-rule="evenodd"/><path fill="#000000" d="m319.2451 113.598366q-1.5625 1.328125 -3.015625 1.875q-1.4375 0.546875 -3.09375 0.546875q-2.734375 0 -4.203125 -1.328125q-1.46875 -1.34375 -1.46875 -3.421875q0 -1.21875 0.546875 -2.21875q0.5625 -1.015625 1.453125 -1.625q0.90625 -0.609375 2.03125 -0.921875q0.828125 -0.21875 2.5 -0.421875q3.40625 -0.40625 5.015625 -0.96875q0.015625 -0.578125 0.015625 -0.734375q0 -1.71875 -0.796875 -2.421875q-1.078125 -0.953125 -3.203125 -0.953125q-1.984375 0 -2.9375 0.703125q-0.9375 0.6875 -1.390625 2.453125l-2.75 -0.375q0.375 -1.765625 1.234375 -2.84375q0.859375 -1.09375 2.484375 -1.671875q1.625 -0.59375 3.765625 -0.59375q2.125 0 3.453125 0.5q1.328125 0.5 1.953125 1.265625q0.625 0.75 0.875 1.90625q0.140625 0.71875 0.140625 2.59375l0 3.75q0 3.921875 0.171875 4.96875q0.1875 1.03125 0.71875 1.984375l-2.9375 0q-0.4375 -0.875 -0.5625 -2.046875zm-0.234375 -6.28125q-1.53125 0.625 -4.59375 1.0625q-1.734375 0.25 -2.453125 0.5625q-0.71875 0.3125 -1.109375 0.921875q-0.390625 0.59375 -0.390625 1.328125q0 1.125 0.84375 1.875q0.859375 0.75 2.5 0.75q1.625 0 2.890625 -0.703125q1.265625 -0.71875 1.859375 -1.953125q0.453125 -0.953125 0.453125 -2.8125l0 -1.03125z" fill-rule="nonzero"/><path fill="#000000" fill-opacity="0.0" d="m273.6706 203.5486l83.055115 0l0 75.00838l-83.055115 0z" fill-rule="evenodd"/><path fill="#000000" d="m311.00284 252.7728l-2.609375 0l0 -22.90625l2.8125 0l0 8.171875q1.78125 -2.234375 4.546875 -2.234375q1.53125 0 2.890625 0.625q1.375 0.609375 2.25 1.734375q0.890625 1.109375 1.390625 2.6875q0.5 1.578125 0.5 3.375q0 4.265625 -2.109375 6.59375q-2.109375 2.328125 -5.0625 2.328125q-2.9375 0 -4.609375 -2.453125l0 2.078125zm-0.03125 -8.421875q0 2.984375 0.8125 4.3125q1.328125 2.171875 3.59375 2.171875q1.84375 0 3.1875 -1.59375q1.34375 -1.609375 1.34375 -4.78125q0 -3.25 -1.296875 -4.796875q-1.28125 -1.546875 -3.109375 -1.546875q-1.84375 0 -3.1875 1.609375q-1.34375 1.59375 -1.34375 4.625z" fill-rule="nonzero"/><path fill="#000000" fill-opacity="0.0" d="m273.6706 340.67847l83.055115 0l0 75.00836l-83.055115 0z" fill-rule="evenodd"/><path fill="#000000" d="m320.13565 383.82452l2.765625 0.359375q-0.453125 2.859375 -2.328125 4.484375q-1.859375 1.609375 -4.578125 1.609375q-3.40625 0 -5.484375 -2.21875q-2.0625 -2.234375 -2.0625 -6.390625q0 -2.6875 0.890625 -4.703125q0.890625 -2.015625 2.703125 -3.015625q1.828125 -1.015625 3.96875 -1.015625q2.703125 0 4.421875 1.375q1.71875 1.359375 2.203125 3.875l-2.734375 0.421875q-0.390625 -1.671875 -1.390625 -2.515625q-0.984375 -0.84375 -2.390625 -0.84375q-2.125 0 -3.453125 1.53125q-1.328125 1.515625 -1.328125 4.8125q0 3.34375 1.28125 4.859375q1.28125 1.515625 3.34375 1.515625q1.65625 0 2.765625 -1.015625q1.109375 -1.015625 1.40625 -3.125z" fill-rule="nonzero"/><path fill="#eeeeee" d="m780.20605 274.8374l0 0c0 -34.447403 29.316528 -62.372543 65.480286 -62.372543l0 0c17.366455 0 34.021667 6.5713654 46.301575 18.268494c12.279968 11.697128 19.178772 27.561813 19.178772 44.10405l0 0c0 34.44742 -29.316528 62.37256 -65.48035 62.37256l0 0c-36.163757 0 -65.480286 -27.92514 -65.480286 -62.37256z" fill-rule="evenodd"/><path stroke="#595959" stroke-width="1.0" stroke-linejoin="round" stroke-linecap="butt" d="m780.20605 274.8374l0 0c0 -34.447403 29.316528 -62.372543 65.480286 -62.372543l0 0c17.366455 0 34.021667 6.5713654 46.301575 18.268494c12.279968 11.697128 19.178772 27.561813 19.178772 44.10405l0 0c0 34.44742 -29.316528 62.37256 -65.48035 62.37256l0 0c-36.163757 0 -65.480286 -27.92514 -65.480286 -62.37256z" fill-rule="evenodd"/><path fill="#000000" d="m849.6629 286.5574l0 -2.09375q-1.578125 2.46875 -4.640625 2.46875q-1.984375 0 -3.65625 -1.09375q-1.65625 -1.09375 -2.578125 -3.046875q-0.90625 -1.96875 -0.90625 -4.515625q0 -2.484375 0.828125 -4.5q0.828125 -2.03125 2.484375 -3.109375q1.65625 -1.078125 3.703125 -1.078125q1.5 0 2.671875 0.640625q1.171875 0.625 1.90625 1.640625l0 -8.21875l2.796875 0l0 22.90625l-2.609375 0zm-8.890625 -8.28125q0 3.1875 1.34375 4.765625q1.34375 1.578125 3.171875 1.578125q1.84375 0 3.125 -1.5q1.296875 -1.515625 1.296875 -4.609375q0 -3.40625 -1.3125 -5.0q-1.3125 -1.59375 -3.234375 -1.59375q-1.875 0 -3.140625 1.53125q-1.25 1.53125 -1.25 4.828125z" fill-rule="nonzero"/><path fill="#000000" fill-opacity="0.0" d="m642.82806 274.8374l137.38586 0" fill-rule="evenodd"/><path stroke="#595959" stroke-width="4.0" stroke-linejoin="round" stroke-linecap="butt" d="m642.82806 274.8374l113.385864 0" fill-rule="evenodd"/><path fill="#595959" stroke="#595959" stroke-width="4.0" stroke-linecap="butt" d="m756.2139 281.44434l18.152344 -6.6069336l-18.152344 -6.606903z" fill-rule="evenodd"/></g></svg>