<svg version="1.1" viewBox="0.0 0.0 960.0 540.0" fill="none" stroke="none" stroke-linecap="square" stroke-miterlimit="10" xmlns:xlink="http://www.w3.org/1999/xlink" xmlns="http://www.w3.org/2000/svg"><clipPath id="g73c15061b7_0_17.0"><path d="m0 0l960.0 0l0 540.0l-960.0 0l0 -540.0z" clip-rule="nonzero"/></clipPath><g clip-path="url(#g73c15061b7_0_17.0)"><path fill="#ffffff" d="m0 0l960.0 0l0 540.0l-960.0 0z" fill-rule="evenodd"/><path fill="#eeeeee" d="m77.51181 80.69385l0 0c0 -36.02008 29.316536 -65.22013 65.480316 -65.22013l0 0c17.366455 0 34.021637 6.8713875 46.301575 19.102533c12.279938 12.231148 19.178741 28.820145 19.178741 46.117596l0 0c0 36.02009 -29.316544 65.22014 -65.480316 65.22014l0 0c-36.16378 0 -65.480316 -29.20005 -65.480316 -65.22014z" fill-rule="evenodd"/><path stroke="#595959" stroke-width="1.0" stroke-linejoin="round" stroke-linecap="butt" d="m77.51181 80.69385l0 0c0 -36.02008 29.316536 -65.22013 65.480316 -65.22013l0 0c17.366455 0 34.021637 6.8713875 46.301575 19.102533c12.279938 12.231148 19.178741 28.820145 19.178741 46.117596l0 0c0 36.02009 -29.316544 65.22014 -65.480316 65.22014l0 0c-36.16378 0 -65.480316 -29.20005 -65.480316 -65.22014z" fill-rule="evenodd"/><path fill="#000000" d="m135.2265 92.41385l6.0625 -8.625l-5.609375 -7.96875l3.515625 0l2.546875 3.890625q0.71875 1.109375 1.15625 1.859375q0.6875 -1.03125 1.265625 -1.828125l2.796875 -3.921875l3.359375 0l-5.734375 7.8125l6.171875 8.78125l-3.453125 0l-3.40625 -5.15625l-0.90625 -1.390625l-4.359375 6.546875l-3.40625 0z" fill-rule="nonzero"/><path fill="#eeeeee" d="m751.5276 274.35516l0 0c0 -36.02008 29.316528 -65.22014 65.480286 -65.22014l0 0c17.366455 0 34.021606 6.871399 46.301575 19.10254c12.279968 12.231155 19.17871 28.820145 19.17871 46.1176l0 0c0 36.02008 -29.316528 65.22012 -65.480286 65.22012l0 0c-36.163757 0 -65.480286 -29.200043 -65.480286 -65.22012z" fill-rule="evenodd"/><path stroke="#595959" stroke-width="1.0" stroke-linejoin="round" stroke-linecap="butt" d="m751.5276 274.35516l0 0c0 -36.02008 29.316528 -65.22014 65.480286 -65.22014l0 0c17.366455 0 34.021606 6.871399 46.301575 19.10254c12.279968 12.231155 19.17871 28.820145 19.17871 46.1176l0 0c0 36.02008 -29.316528 65.22012 -65.480286 65.22012l0 0c-36.163757 0 -65.480286 -29.200043 -65.480286 -65.22012z" fill-rule="evenodd"/><path fill="#000000" d="m810.99225 292.4658l-0.3125 -2.640625q0.921875 0.25 1.609375 0.25q0.9375 0 1.5 -0.3125q0.5625 -0.3125 0.921875 -0.875q0.265625 -0.421875 0.859375 -2.09375q0.078125 -0.234375 0.25 -0.6875l-6.296875 -16.625l3.03125 0l3.453125 9.609375q0.671875 1.828125 1.203125 3.84375q0.484375 -1.9375 1.15625 -3.78125l3.546875 -9.671875l2.8125 0l-6.3125 16.875q-1.015625 2.734375 -1.578125 3.765625q-0.75 1.390625 -1.71875 2.03125q-0.96875 0.65625 -2.3125 0.65625q-0.8125 0 -1.8125 -0.34375z" fill-rule="nonzero"/><path fill="#eeeeee" d="m77.51181 468.01648l0 0c0 -36.02008 29.316536 -65.22012 65.480316 -65.22012l0 0c17.366455 0 34.021637 6.8713684 46.301575 19.102509c12.279938 12.231171 19.178741 28.82016 19.178741 46.117615l0 0c0 36.02008 -29.316544 65.22015 -65.480316 65.22015l0 0c-36.16378 0 -65.480316 -29.200073 -65.480316 -65.22015z" fill-rule="evenodd"/><path stroke="#595959" stroke-width="1.0" stroke-linejoin="round" stroke-linecap="butt" d="m77.51181 468.01648l0 0c0 -36.02008 29.316536 -65.22012 65.480316 -65.22012l0 0c17.366455 0 34.021637 6.8713684 46.301575 19.102509c12.279938 12.231171 19.178741 28.82016 19.178741 46.117615l0 0c0 36.02008 -29.316544 65.22015 -65.480316 65.22015l0 0c-36.16378 0 -65.480316 -29.200073 -65.480316 -65.22015z" fill-rule="evenodd"/><path fill="#000000" d="m146.01556 479.73648l-2.8125 0l0 -17.921875q-1.015625 0.96875 -2.671875 1.9375q-1.640625 0.96875 -2.953125 1.453125l0 -2.71875q2.359375 -1.109375 4.125 -2.6875q1.765625 -1.578125 2.5 -3.0625l1.8125 0l0 23.0z" fill-rule="nonzero"/><path fill="#eeeeee" d="m382.91733 274.35516l0 0c0 -62.103592 50.764557 -112.4485 113.38583 -112.4485l0 0c30.071777 0 58.911926 11.847214 80.1759 32.935394c21.263916 21.088196 33.2099 49.68991 33.2099 79.51311l0 0c0 62.103607 -50.764526 112.44852 -113.3858 112.44852l0 0c-62.621277 0 -113.38583 -50.34491 -113.38583 -112.44852z" fill-rule="evenodd"/><path stroke="#595959" stroke-width="1.0" stroke-linejoin="round" stroke-linecap="butt" d="m382.91733 274.35516l0 0c0 -62.103592 50.764557 -112.4485 113.38583 -112.4485l0 0c30.071777 0 58.911926 11.847214 80.1759 32.935394c21.263916 21.088196 33.2099 49.68991 33.2099 79.51311l0 0c0 62.103607 -50.764526 112.44852 -113.3858 112.44852l0 0c-62.621277 0 -113.38583 -50.34491 -113.38583 -112.44852z" fill-rule="evenodd"/><path fill="#000000" d="m482.4594 256.48203l28.984375 0l0 3.84375l-23.15625 0l14.234375 18.171875l-15.21875 19.265625l24.375 0l0 3.78125l-29.625 0l0 -4.390625l14.53125 -18.46875l-14.125 -18.09375l0 -4.109375z" fill-rule="nonzero"/><path fill="#000000" fill-opacity="0.0" d="m208.47244 80.69385l207.68503 114.13524" fill-rule="evenodd"/><path stroke="#595959" stroke-width="4.0" stroke-linejoin="round" stroke-linecap="butt" d="m208.47244 80.693855l186.65195 102.5763" fill-rule="evenodd"/><path fill="#595959" stroke="#595959" stroke-width="4.0" stroke-linecap="butt" d="m391.94235 189.06033l19.090393 2.952423l-12.726318 -14.532776z" fill-rule="evenodd"/><path fill="#000000" fill-opacity="0.0" d="m609.68896 274.35516l141.82678 0" fill-rule="evenodd"/><path stroke="#595959" stroke-width="4.0" stroke-linejoin="round" stroke-linecap="butt" d="m609.68896 274.35516l117.82678 0" fill-rule="evenodd"/><path fill="#595959" stroke="#595959" stroke-width="4.0" stroke-linecap="butt" d="m727.51575 280.9621l18.152405 -6.6069336l-18.152405 -6.6069336z" fill-rule="evenodd"/><path fill="#000000" fill-opacity="0.0" d="m208.47244 468.01648l207.68503 -114.13522" fill-rule="evenodd"/><path stroke="#595959" stroke-width="4.0" stroke-linejoin="round" stroke-linecap="butt" d="m208.47244 468.01648l186.65195 -102.576324" fill-rule="evenodd"/><path fill="#595959" stroke="#595959" stroke-width="4.0" stroke-linecap="butt" d="m398.30643 371.23035l12.726318 -14.532776l-19.090393 2.952423z" fill-rule="evenodd"/><path fill="#000000" fill-opacity="0.0" d="m206.77165 56.21103l211.08662 0l0 78.43283l-211.08662 0z" fill-rule="evenodd"/><path fill="#000000" d="m276.86966 100.272446l0 -2.828125l8.640625 0l0 2.828125l-8.640625 0zm22.578125 4.828125q-1.5625 1.328125 -3.015625 1.875q-1.4375 0.546875 -3.09375 0.546875q-2.734375 0 -4.203125 -1.328125q-1.46875 -1.34375 -1.46875 -3.421875q0 -1.21875 0.546875 -2.21875q0.5625 -1.015625 1.453125 -1.625q0.90625 -0.609375 2.03125 -0.921875q0.828125 -0.21875 2.5 -0.421875q3.40625 -0.40625 5.015625 -0.96875q0.015625 -0.578125 0.015625 -0.734375q0 -1.71875 -0.796875 -2.421875q-1.078125 -0.953125 -3.203125 -0.953125q-1.984375 0 -2.9375 0.703125q-0.9375 0.6875 -1.390625 2.453125l-2.75 -0.375q0.375 -1.765625 1.234375 -2.84375q0.859375 -1.09375 2.484375 -1.671875q1.625 -0.59375 3.765625 -0.59375q2.125 0 3.453125 0.5q1.328125 0.5 1.953125 1.265625q0.625 0.75 0.875 1.90625q0.140625 0.71875 0.140625 2.59375l0 3.75q0 3.921875 0.171875 4.96875q0.1875 1.03125 0.71875 1.984375l-2.9375 0q-0.4375 -0.875 -0.5625 -2.046875zm-0.234375 -6.28125q-1.53125 0.625 -4.59375 1.0625q-1.734375 0.25 -2.453125 0.5625q-0.71875 0.3125 -1.109375 0.921875q-0.390625 0.59375 -0.390625 1.328125q0 1.125 0.84375 1.875q0.859375 0.75 2.5 0.75q1.625 0 2.890625 -0.703125q1.265625 -0.71875 1.859375 -1.953125q0.453125 -0.953125 0.453125 -2.8125l0 -1.03125zm13.984375 8.71875l6.640625 -23.6875l2.25 0l-6.625 23.6875l-2.265625 0zm22.484375 -0.390625l-2.609375 0l0 -22.90625l2.8125 0l0 8.171875q1.78125 -2.234375 4.546875 -2.234375q1.53125 0 2.890625 0.625q1.375 0.609375 2.25 1.734375q0.890625 1.109375 1.390625 2.6875q0.5 1.578125 0.5 3.375q0 4.265625 -2.109375 6.59375q-2.109375 2.328125 -5.0625 2.328125q-2.9375 0 -4.609375 -2.453125l0 2.078125zm-0.03125 -8.421875q0 2.984375 0.8125 4.3125q1.328125 2.171875 3.59375 2.171875q1.84375 0 3.1875 -1.59375q1.34375 -1.609375 1.34375 -4.78125q0 -3.25 -1.296875 -4.796875q-1.28125 -1.546875 -3.109375 -1.546875q-1.84375 0 -3.1875 1.609375q-1.34375 1.59375 -1.34375 4.625z" fill-rule="nonzero"/><path fill="#000000" fill-opacity="0.0" d="m216.31496 331.72284l192.00002 0l0 78.43283l-192.00002 0z" fill-rule="evenodd"/><path fill="#000000" d="m277.7681 375.78427l0 -2.828125l8.640625 0l0 2.828125l-8.640625 0zm22.578125 0.796875l2.765625 0.359375q-0.453125 2.859375 -2.328125 4.484375q-1.859375 1.609375 -4.578125 1.609375q-3.40625 0 -5.484375 -2.21875q-2.0625 -2.234375 -2.0625 -6.390625q0 -2.6875 0.890625 -4.703125q0.890625 -2.015625 2.703125 -3.015625q1.828125 -1.015625 3.96875 -1.015625q2.703125 0 4.421875 1.375q1.71875 1.359375 2.203125 3.875l-2.734375 0.421875q-0.390625 -1.671875 -1.390625 -2.515625q-0.984375 -0.84375 -2.390625 -0.84375q-2.125 0 -3.453125 1.53125q-1.328125 1.515625 -1.328125 4.8125q0 3.34375 1.28125 4.859375q1.28125 1.515625 3.34375 1.515625q1.65625 0 2.765625 -1.015625q1.109375 -1.015625 1.40625 -3.125zm11.953125 6.46875l6.640625 -23.6875l2.25 0l-6.625 23.6875l-2.265625 0zm22.484375 -0.390625l-2.609375 0l0 -22.90625l2.8125 0l0 8.171875q1.78125 -2.234375 4.546875 -2.234375q1.53125 0 2.890625 0.625q1.375 0.609375 2.25 1.734375q0.890625 1.109375 1.390625 2.6875q0.5 1.578125 0.5 3.375q0 4.265625 -2.109375 6.59375q-2.109375 2.328125 -5.0625 2.328125q-2.9375 0 -4.609375 -2.453125l0 2.078125zm-0.03125 -8.421875q0 2.984375 0.8125 4.3125q1.328125 2.171875 3.59375 2.171875q1.84375 0 3.1875 -1.59375q1.34375 -1.609375 1.34375 -4.78125q0 -3.25 -1.296875 -4.796875q-1.28125 -1.546875 -3.109375 -1.546875q-1.84375 0 -3.1875 1.609375q-1.34375 1.59375 -1.34375 4.625z" fill-rule="nonzero"/></g></svg>